#!OML:ASF F:\VICON\USERDATA\INSTALL\rory3\rory3.ASF
:FULLY-SPECIFIED
:DEGREES
141
root -0.8763518340521923 17.078836432553935 32.88224836460762 2.856774630165494 4.26324545939319 2.4690644144640843
lfemur -17.148782166359318 3.2055014761261957 -27.10221995737638
ltibia 64.06856229113627
lfoot -20.883132471674323 3.1919218225061066
ltoes 2.4039074234034388
rfemur -38.214791858448244 -10.145406500330546 15.870080765826998
rtibia 88.31147339952902
rfoot 17.567872444747533 -4.06882857823059
rtoes 7.921887484080723
lowerback 1.0 -0.9988613972261775 -3.070593741896488
upperback -0.0581625162991809 -0.8381587865396583 -0.4560756743504576
thorax -8.81282272182977 -0.7904599911910571 2.6291747970632615
lowerneck -24.401012902410898 -4.756897547611064 -1.276842734788576
upperneck 17.284673437498142 -5.207728166258474 2.481045499500894
head 9.004381504565558 -2.5247762087878627 0.4878405661388144
lclavicle -2.1507704567886382e-14 -1.5687186299269328e-14
lhumerus -38.73886458624235 -8.40008046429623 93.4351063719429
lradius 103.91011433552795
lwrist 32.541287787160385
lhand -25.121914259070405 -7.403754697989928
lfingers nan
lthumb 1.7046045044722193 23.30512197493922
rclavicle -1.3982674643817268e-14 -9.532618596316302e-15
rhumerus -53.473963913404205 2.662534638801713 -94.75189766863406
rradius 98.3260746821231
rwrist -6.921479030587756
rhand -21.23983816159969 1.0
rfingers nan
rthumb 5.173190573901833 13.866954104211164
142
root -0.8019105620756152 17.13146292424025 33.516896762383624 2.609431616854664 5.9162474034937595 2.826430965230216
lfemur -15.00112990445458 1.3381184602776683 -26.859124084678594
ltibia 62.889337650870154
lfoot -19.734491560940015 2.5730956165320418
ltoes -1.3107875329387895
rfemur -37.82472167482717 -11.92979178336941 15.97195756266164
rtibia 86.01359175247514
rfoot 13.737490478273084 -2.980612504232364
rtoes 0.727896899332273
lowerback 1.0 -1.6838439968780257 -2.087031503982574
upperback -0.05664680724735538 -1.7708956964863831 -0.27741299177184453
thorax -8.909490365887057 -1.2350616802271652 2.688272612899341
lowerneck -22.394038559152854 -4.427331566535002 -1.7370663549644563
upperneck 16.648131973842577 -4.590326436954441 2.664172447330239
head 8.549499862520443 -2.289596187969525 0.6301985717896487
lclavicle -3.2120369642626326e-15 -9.705145274332202e-15
lhumerus -38.82400693210427 -8.22837347542397 93.67158888951457
lradius 106.6417356335077
lwrist 33.34830684174871
lhand -25.88238397769234 -7.1136521857110875
lfingers nan
lthumb 0.9627205003897799 23.63022673913489
rclavicle 4.550134616792992e-15 -3.433882730624581e-15
rhumerus -54.99427428591609 3.390706466268238 -94.44173186210789
rradius 99.34511656981249
rwrist -9.476619934123503
rhand -20.54317202964208 1.0
rfingers nan
rthumb 5.83847081884095 13.74599585606297
143
root -0.8148034912711796 17.176524444915835 33.99102992751894 2.9372682842007913 4.606626514259943 2.4485413162668412
lfemur -13.357580803932088 2.041567284389599 -26.650683269907454
ltibia 61.76597777932747
lfoot -18.011889569911546 2.33592363282691
ltoes -3.8191582362287564
rfemur -40.570592006324155 -9.667001093360819 17.20610345067666
rtibia 84.10029490965366
rfoot 12.241340651975893 -2.8438726462092365
rtoes -0.21914080465133745
lowerback 1.0 -1.5027571557444876 -2.3349309933318128
upperback -0.4973729443688031 -1.4828486982700282 -0.04071177773070622
thorax -9.33401028227234 -1.0616764633829034 2.8430883299554925
lowerneck -18.412845519522925 -4.134468688704861 -2.4937946310088916
upperneck 14.337052837659105 -4.059967506434525 3.299590162644118
head 7.500027673832059 -2.0575453105963923 0.8971383219549862
lclavicle -4.879998264807795e-15 1.0386366051576076e-14
lhumerus -39.064446105350335 -8.04649510210564 93.82319151281716
lradius 109.47476358678605
lwrist 34.583052060078614
lhand -26.44590356694364 -7.723652676113961
lfingers nan
lthumb 0.42439880852802814 22.942855894853423
rclavicle 3.3387573402747432e-15 1.7088310047705812e-14
rhumerus -56.55979540975143 4.092118165252524 -94.2454237003036
rradius 100.3848760415326
rwrist -11.657532084386187
rhand -20.13481753794853 1.0
rfingers nan
rthumb 6.220391977389179 14.218221643552067
144
root -0.83679781778103 17.23894039723685 33.621486026512756 3.097118976356663 3.4226161956363206 1.9009848370224705
lfemur -11.89791216586207 2.7262648854732774 -26.380161242934694
ltibia 60.63159044743415
lfoot -15.648931496315969 2.072274825765003
ltoes -6.700240277411624
rfemur -43.063297773262384 -7.5424423304641195 18.462055313148703
rtibia 81.59749673111084
rfoot 11.271701414397707 -2.7308035479958797
rtoes -2.7818585267208578
lowerback 1.0 -1.3341267118610227 -2.680040706256129
upperback -0.6063939888329661 -1.2786250521817055 0.28235623763587847
thorax -9.525610455001338 -0.8813699294887548 3.115784817733105
lowerneck -20.590268503957837 -4.1171828646189255 -2.3187823859357914
upperneck 15.601743831467783 -4.086893849665103 2.8442566691502416
head 8.096867431672589 -2.038050219984024 0.7640512059635531
lclavicle -2.9263426358621754e-14 -1.6765061280565613e-14
lhumerus -38.81594478691003 -7.990260868286391 93.62580844626065
lradius 112.09770235428333
lwrist 35.72515154824792
lhand -25.49370164407733 -9.17079806705979
lfingers nan
lthumb 1.3675643030854054 21.617908994433005
rclavicle -2.097301180769261e-14 -1.0051083480264216e-14
rhumerus -57.417858738004114 4.902239171707855 -94.0857524875205
rradius 101.33654635973865
rwrist -13.343177892533252
rhand -20.09063190792122 1.0
rfingers nan
rthumb 6.249640309346132 14.41498019970464
145
root -0.820834235831531 17.294135603592242 34.375816390646406 3.0720956164190256 3.3910540539673923 1.9325372603286557
lfemur -9.972529347578778 2.563668005403825 -26.31619333124474
ltibia 59.44050812198749
lfoot -12.824385489820818 1.359105488445758
ltoes -9.781760099305028
rfemur -44.64973306543978 -6.811018955475038 18.979424981731682
rtibia 78.44302256472066
rfoot 9.965585527193607 -2.279842266159858
rtoes -7.665324212440949
lowerback 1.0 -1.4694728111541548 -2.8377072940459533
upperback -0.48790733908948214 -1.5280290293268455 0.4870760080522026
thorax -9.16739943234995 -0.9092106360988758 3.3231282455575823
lowerneck -20.25335765429756 -3.9299646051166794 -2.582684144510205
upperneck 14.88131504924658 -3.8686085623970845 3.0444847348616935
head 7.846663370667475 -1.9295042048629656 0.8683194696848575
lclavicle 2.636417218839613e-15 -1.5320170931520164e-14
lhumerus -38.56356193015781 -8.083475267261276 93.33851388740368
lradius 114.68806312237191
lwrist 36.73256340644228
lhand -25.182971194628262 -9.753492789416248
lfingers nan
lthumb 1.654656151097877 21.01492828058872
rclavicle 1.1356430362641165e-14 -8.532227835464508e-15
rhumerus -58.223691204836314 5.54324103402684 -93.95016556628325
rradius 102.31209904035885
rwrist -14.23648439419049
rhand -20.06224468866603 1.0
rfingers nan
rthumb 6.258249965577671 14.823844183329808
146
root -0.8055289512145734 17.34470858000433 34.29170796062978 3.0692057122857017 3.1781057570204867 1.9598113814358686
lfemur -8.077060280333763 2.5451040930013864 -26.307717974849755
ltibia 58.11594868894073
lfoot -9.953543998288106 0.037939240776870164
ltoes -10.984968052871682
rfemur -45.73034004328336 -5.839382853580977 19.42100736387838
rtibia 74.97696409655612
rfoot 8.855970837095033 -2.0830668462556483
rtoes -11.155222093699088
lowerback 1.0 -1.5499030359714834 -3.015313985009124
upperback -0.453418711584912 -1.7084691411311037 0.6821873327279876
thorax -8.574434934801758 -0.9682968912582516 3.4896887918028714
lowerneck -18.150553056747654 -3.4498184727247794 -2.650575575483729
upperneck 13.935592662434368 -3.302331404911073 3.0484618761694633
head 7.309699564897771 -1.723728087691841 0.9233005507352738
lclavicle 8.990732740341516e-15 -1.868801442028228e-14
lhumerus -38.684272684836685 -8.25697960752865 93.27503353717258
lradius 117.35137412847368
lwrist 37.67102776132164
lhand -25.784727981714923 -10.037855687028214
lfingers nan
lthumb 1.056241201949724 20.730824156897143
rclavicle 1.8067913335288912e-14 -1.1571269530716434e-14
rhumerus -59.30214877465543 5.913790292504931 -93.66413102341934
rradius 103.41333762050681
rwrist -14.947567153970017
rhand -19.83648999017796 1.0
rfingers nan
rthumb 6.448511093125766 15.024223734062579
